<?xml version="1.0" encoding="UTF-8" standalone="no"?>
<svg width="78px" height="78px" viewBox="0 0 78 78" version="1.1" xmlns="http://www.w3.org/2000/svg" xmlns:xlink="http://www.w3.org/1999/xlink">
    <!-- Generator: Sketch 41 (35326) - http://www.bohemiancoding.com/sketch -->
    <title>Group</title>
    <desc>Created with Sketch.</desc>
    <defs></defs>
    <g id="Style-Guide" stroke="none" stroke-width="1" fill="none" fill-rule="evenodd">
        <g id="Logo" transform="translate(-1171.000000, -611.000000)">
            <g id="Group" transform="translate(1171.000000, 611.000000)">
                <path d="M0.451475428,0.902950857 C0.202132434,0.404264869 0.447489426,0 0.998502329,0 L12.0014977,0 C12.5529553,0 13.2005356,0.401071172 13.4514754,0.902950857 L51.5485246,77.0970491 C51.7978676,77.5957351 51.5525106,78 51.0014977,78 L39.9985023,78 C39.4470447,78 38.7994644,77.5989288 38.5485246,77.0970491 L0.451475428,0.902950857 Z" id="White-Bars" fill="#000000"></path>
                <path d="M26.4514754,0.902950857 C26.2021324,0.404264869 26.4474894,0 26.9985023,0 L38.0014977,0 C38.5529553,0 39.2005356,0.401071172 39.4514754,0.902950857 L77.5485246,77.0970491 C77.7978676,77.5957351 77.5525106,78 77.0014977,78 L65.9985023,78 C65.4470447,78 64.7994644,77.5989288 64.5485246,77.0970491 L26.4514754,0.902950857 Z" id="White-Bars" fill="#000000"></path>
                <path d="M77.5525106,25.1050211 C77.7996522,25.5993043 77.5525106,26 77.0014977,26 L65.9985023,26 C65.4470447,26 64.795801,25.5916021 64.5525106,25.1050211 L52.4474894,0.894978851 C52.2003478,0.40069568 52.4474894,0 52.9985023,0 L64.0014977,0 C64.5529553,0 65.204199,0.408397913 65.4474894,0.894978851 L77.5525106,25.1050211 Z" id="Accent-Bar" fill="#FF196E"></path>
            </g>
        </g>
    </g>
</svg>